<?xml version="1.0" encoding="UTF-8"?>
<!DOCTYPE svg PUBLIC "-//W3C//DTD SVG 1.1//EN" "http://www.w3.org/Graphics/SVG/1.1/DTD/svg11.dtd">
<svg xmlns="http://www.w3.org/2000/svg" version="1.1" width="512px" height="512px" style="shape-rendering:geometricPrecision; text-rendering:geometricPrecision; image-rendering:optimizeQuality; fill-rule:evenodd; clip-rule:evenodd" xmlns:xlink="http://www.w3.org/1999/xlink">
<g><path style="opacity:0.853" fill="#000000" d="M 259.5,-0.5 C 262.167,-0.5 264.833,-0.5 267.5,-0.5C 272.235,3.67376 272.568,8.17376 268.5,13C 259.323,15.4924 255.489,11.9924 257,2.5C 258.045,1.62656 258.878,0.626561 259.5,-0.5 Z"/></g>
<g><path style="opacity:0.906" fill="#000000" d="M 302.5,-0.5 C 314.5,-0.5 326.5,-0.5 338.5,-0.5C 353.674,1.07743 369.007,2.57743 384.5,4C 404.333,7.83333 416.167,19.6667 420,39.5C 424.38,87.0127 428.88,134.513 433.5,182C 432.081,198.416 423.581,209.249 408,214.5C 406.183,225.303 401.35,234.469 393.5,242C 415.5,242.333 437.5,242.667 459.5,243C 462.475,248.045 464.308,253.545 465,259.5C 476.168,326.682 460.001,386.182 416.5,438C 404.954,437.979 395.454,433.479 388,424.5C 374.719,408.356 373.052,391.023 383,372.5C 384.722,353.812 384.722,335.146 383,316.5C 382.497,310.328 379.997,305.162 375.5,301C 364.903,298.675 354.237,296.675 343.5,295C 327.961,289.127 317.461,278.293 312,262.5C 311.223,259.571 311.39,256.737 312.5,254C 274.167,253.333 235.833,253.333 197.5,254C 208.576,262.071 217.076,272.237 223,284.5C 224.458,286.96 226.291,289.127 228.5,291C 233.833,293.667 239.167,296.333 244.5,299C 247.5,300.667 249.833,303 251.5,306C 264.877,309.043 273.377,317.21 277,330.5C 279.469,343.058 275.636,353.225 265.5,361C 262.073,362.796 258.906,364.963 256,367.5C 252.823,372.743 250.323,378.243 248.5,384C 244.234,384.097 240.068,384.263 236,384.5C 235.114,389.47 234.448,394.47 234,399.5C 232.181,404.336 228.681,407.169 223.5,408C 211.71,407.679 205.71,413.512 205.5,425.5C 206.285,437.181 206.618,448.848 206.5,460.5C 206.199,464.971 203.866,467.804 199.5,469C 185.525,472.596 175.025,468.096 168,455.5C 166.035,449.639 164.702,443.639 164,437.5C 151.239,428.981 145.073,416.981 145.5,401.5C 148.196,386.527 146.363,372.194 140,358.5C 132.78,349.609 126.78,339.942 122,329.5C 118.5,313.498 121,298.498 129.5,284.5C 119.157,276.833 114.824,266.5 116.5,253.5C 97.1667,253.5 77.8333,253.5 58.5,253.5C 43.4186,338.118 69.0853,407.284 135.5,461C 195.238,502.819 259.571,511.485 328.5,487C 338.564,483.135 348.23,478.468 357.5,473C 364.684,472.865 366.684,476.032 363.5,482.5C 336.508,498.386 307.508,508.053 276.5,511.5C 262.833,511.5 249.167,511.5 235.5,511.5C 155.915,501.068 98.082,460.068 62,388.5C 41.7401,342.641 37.4067,295.308 49,246.5C 49.4652,245.069 50.2986,243.903 51.5,243C 74.5,242.667 97.5,242.333 120.5,242C 112.809,234.785 108.142,225.952 106.5,215.5C 93.0455,216.511 83.8789,210.844 79,198.5C 77.4014,183.888 77.0681,169.222 78,154.5C 78.7322,143.304 82.0655,132.971 88,123.5C 102.906,101.243 120.072,80.7427 139.5,62C 164.78,40.0181 193.446,23.6848 225.5,13C 233.206,11.2041 235.872,14.0375 233.5,21.5C 190.586,35.9387 154.253,60.1054 124.5,94C 179.166,94.5 233.832,94.6667 288.5,94.5C 288.333,64.8315 288.5,35.1648 289,5.5C 289.273,3.67109 290.107,2.17109 291.5,1C 295.356,0.822695 299.023,0.322695 302.5,-0.5 Z M 308.5,10.5 C 335.709,10.4064 362.709,12.573 389.5,17C 398.481,21.3137 404.648,28.147 408,37.5C 410.344,56.4526 412.178,75.4526 413.5,94.5C 375.833,94.5 338.167,94.5 300.5,94.5C 300.5,66.8333 300.5,39.1667 300.5,11.5C 303.385,11.8064 306.052,11.4731 308.5,10.5 Z M 115.5,105.5 C 215.169,105.167 314.836,105.5 414.5,106.5C 415.696,115.463 416.696,124.463 417.5,133.5C 408.161,133.334 398.827,133.5 389.5,134C 384.782,135.449 383.282,138.615 385,143.5C 397.368,156.2 409.368,169.2 421,182.5C 420.773,191.929 416.273,198.596 407.5,202.5C 398.997,173.855 379.997,162.355 350.5,168C 333.538,174.413 323.538,186.58 320.5,204.5C 278.165,204.667 235.832,204.5 193.5,204C 185.651,174.502 166.651,162.502 136.5,168C 119.059,174.046 109.059,186.213 106.5,204.5C 93.7725,204.441 88.1059,198.107 89.5,185.5C 92.8499,185.665 96.1832,185.498 99.5,185C 103.5,181.667 103.5,178.333 99.5,175C 96.1832,174.502 92.8499,174.335 89.5,174.5C 89.5,171.5 89.5,168.5 89.5,165.5C 109.106,166.458 122.939,158.125 131,140.5C 132.09,136.384 132.923,132.218 133.5,128C 133.561,125.739 132.894,123.739 131.5,122C 122.5,121.667 113.5,121.333 104.5,121C 108.299,115.892 111.966,110.725 115.5,105.5 Z M 96.5,132.5 C 104.84,132.334 113.173,132.5 121.5,133C 116.209,148.149 105.542,154.983 89.5,153.5C 90.049,145.853 92.3823,138.853 96.5,132.5 Z M 403.5,146.5 C 408.305,145.513 413.305,145.179 418.5,145.5C 419.332,151.484 419.499,157.484 419,163.5C 413.967,157.638 408.801,151.971 403.5,146.5 Z M 143.5,177.5 C 166.338,176.503 179.338,187.336 182.5,210C 178.725,232.784 165.392,243.117 142.5,241C 124.813,235.3 116.646,223.133 118,204.5C 121.248,190.421 129.748,181.421 143.5,177.5 Z M 357.5,177.5 C 380.365,176.534 393.365,187.368 396.5,210C 392.74,232.766 379.407,243.099 356.5,241C 338.829,235.312 330.662,223.145 332,204.5C 335.586,190.75 344.086,181.75 357.5,177.5 Z M 148.5,200.5 C 157.841,201.004 161.007,205.671 158,214.5C 150.089,220.308 144.589,218.474 141.5,209C 142.336,204.774 144.669,201.941 148.5,200.5 Z M 360.5,200.5 C 369.918,201.067 373.085,205.734 370,214.5C 365.263,219.557 360.596,219.557 356,214.5C 352.997,208.246 354.497,203.58 360.5,200.5 Z M 192.5,215.5 C 235.172,215.167 277.839,215.5 320.5,216.5C 322.439,226.548 327.106,235.048 334.5,242C 282.833,242.667 231.167,242.667 179.5,242C 186.914,234.673 191.247,225.839 192.5,215.5 Z M 127.5,253.5 C 142.837,253.333 158.17,253.5 173.5,254C 192.832,261.997 206.999,275.497 216,294.5C 217.833,296.333 219.667,298.167 221.5,300C 227.779,302.473 233.779,305.473 239.5,309C 240.676,311.686 242.343,314.019 244.5,316C 259.179,317.674 266.346,325.841 266,340.5C 265,342.5 264,344.5 263,346.5C 257.333,351.5 251.667,356.5 246,361.5C 243.806,364.554 242.139,367.888 241,371.5C 235.781,371.65 231.115,373.317 227,376.5C 225.343,382.417 224.009,388.417 223,394.5C 222.167,395.333 221.333,396.167 220.5,397C 206.37,396.794 197.87,403.627 195,417.5C 194.363,424.848 194.53,432.181 195.5,439.5C 195.044,446.075 194.377,452.575 193.5,459C 188.211,459.277 183.711,457.444 180,453.5C 177.56,445.85 175.227,438.183 173,430.5C 169.333,427.167 165.667,423.833 162,420.5C 160.275,417.326 158.942,413.993 158,410.5C 163.157,380.198 155.491,353.865 135,331.5C 130.737,321.992 130.403,312.326 134,302.5C 137.365,295.604 140.865,288.771 144.5,282C 144.097,280.527 143.43,279.194 142.5,278C 131.023,273.892 126.023,265.725 127.5,253.5 Z M 324.5,253.5 C 367.167,253.5 409.833,253.5 452.5,253.5C 463.362,306.638 455.195,356.638 428,403.5C 423.218,411.408 417.718,418.742 411.5,425.5C 397.616,420.623 389.616,410.957 387.5,396.5C 389.062,387.646 391.729,379.146 395.5,371C 395.021,368.688 394.688,366.355 394.5,364C 397.244,347.127 397.077,330.294 394,313.5C 392.993,307.478 390.993,301.811 388,296.5C 385.736,293.567 382.902,291.4 379.5,290C 368.551,287.756 357.551,285.756 346.5,284C 336.421,280.255 329.254,273.422 325,263.5C 323.388,260.197 323.222,256.864 324.5,253.5 Z"/></g>
<g><path style="opacity:0.903" fill="#000000" d="M 474.5,67.5 C 476.582,67.472 478.416,68.1387 480,69.5C 481.337,73.0257 481.837,76.6924 481.5,80.5C 484.85,80.335 488.183,80.5017 491.5,81C 494.343,84.6187 494.01,87.952 490.5,91C 487.518,91.498 484.518,91.6646 481.5,91.5C 481.665,94.5184 481.498,97.5184 481,100.5C 478.029,104.092 474.696,104.425 471,101.5C 470.502,98.1832 470.335,94.8499 470.5,91.5C 466.416,91.9569 462.583,91.2902 459,89.5C 456.862,86.2525 457.362,83.4192 460.5,81C 463.817,80.5017 467.15,80.335 470.5,80.5C 470.335,77.1501 470.502,73.8168 471,70.5C 472.145,69.3636 473.312,68.3636 474.5,67.5 Z"/></g>
<g><path style="opacity:0.846" fill="#000000" d="M 248.5,122.5 C 254.842,122.334 261.175,122.5 267.5,123C 271.213,124.691 272.379,127.525 271,131.5C 270.097,132.701 268.931,133.535 267.5,134C 261.5,134.667 255.5,134.667 249.5,134C 246.797,133.135 245.464,131.301 245.5,128.5C 245.467,125.898 246.467,123.898 248.5,122.5 Z"/></g>
<g><path style="opacity:0.896" fill="#000000" d="M 144.5,189.5 C 163.65,187.816 172.15,196.482 170,215.5C 165.682,226.077 157.848,230.577 146.5,229C 133.003,224.561 128.17,215.394 132,201.5C 134.744,195.921 138.911,191.921 144.5,189.5 Z M 148.5,200.5 C 144.669,201.941 142.336,204.774 141.5,209C 144.589,218.474 150.089,220.308 158,214.5C 161.007,205.671 157.841,201.004 148.5,200.5 Z"/></g>
<g><path style="opacity:0.895" fill="#000000" d="M 356.5,189.5 C 378.885,188.963 386.718,199.296 380,220.5C 371.991,230.093 362.491,231.927 351.5,226C 339.887,215.329 339.554,204.329 350.5,193C 352.727,192.059 354.727,190.892 356.5,189.5 Z M 360.5,200.5 C 354.497,203.58 352.997,208.246 356,214.5C 360.596,219.557 365.263,219.557 370,214.5C 373.085,205.734 369.918,201.067 360.5,200.5 Z"/></g>
<g><path style="opacity:0.903" fill="#000000" d="M 32.5,405.5 C 35.3646,405.055 37.8646,405.722 40,407.5C 40.4983,410.817 40.665,414.15 40.5,417.5C 43.8499,417.335 47.1832,417.502 50.5,418C 54.5,421.333 54.5,424.667 50.5,428C 47.1832,428.498 43.8499,428.665 40.5,428.5C 40.665,431.85 40.4983,435.183 40,438.5C 37.5027,440.478 34.6693,440.978 31.5,440C 29.7098,436.417 29.0431,432.584 29.5,428.5C 26.4816,428.665 23.4816,428.498 20.5,428C 16.5,424.667 16.5,421.333 20.5,418C 23.4816,417.502 26.4816,417.335 29.5,417.5C 29.3354,414.482 29.502,411.482 30,408.5C 30.6979,407.309 31.5313,406.309 32.5,405.5 Z"/></g>
<g><path style="opacity:0.862" fill="#000000" d="M 384.5,446.5 C 391.657,446.155 394.824,449.488 394,456.5C 391.928,461.143 388.428,462.643 383.5,461C 379.788,458.487 378.622,454.987 380,450.5C 381.397,448.93 382.897,447.596 384.5,446.5 Z"/></g>
</svg>
